<?xml version="1.0" encoding="UTF-8" standalone="no"?>
<!-- Created with Inkscape (http://www.inkscape.org/) -->

<svg
   width="48"
   height="48"
   viewBox="0 0 48 48"
   version="1.1"
   id="svg1"
   inkscape:version="1.4.2 (ebf0e940d0, 2025-05-08)"
   sodipodi:docname="logo.svg"
   inkscape:export-filename="logo.png"
   inkscape:export-xdpi="96"
   inkscape:export-ydpi="96"
   xmlns:inkscape="http://www.inkscape.org/namespaces/inkscape"
   xmlns:sodipodi="http://sodipodi.sourceforge.net/DTD/sodipodi-0.dtd"
   xmlns="http://www.w3.org/2000/svg"
   xmlns:svg="http://www.w3.org/2000/svg">
  <sodipodi:namedview
     id="namedview1"
     pagecolor="#ffffff"
     bordercolor="#000000"
     borderopacity="0.25"
     inkscape:showpageshadow="2"
     inkscape:pageopacity="0.0"
     inkscape:pagecheckerboard="0"
     inkscape:deskcolor="#d1d1d1"
     inkscape:document-units="px"
     inkscape:zoom="13.686263"
     inkscape:cx="19.106749"
     inkscape:cy="23.490707"
     inkscape:window-width="1920"
     inkscape:window-height="1014"
     inkscape:window-x="0"
     inkscape:window-y="0"
     inkscape:window-maximized="1"
     inkscape:current-layer="layer3" />
  <defs
     id="defs1" />
  <g
     inkscape:label="Layer 1"
     inkscape:groupmode="layer"
     id="layer1"
     style="display:none">
    <text
       xml:space="preserve"
       style="font-style:normal;font-variant:normal;font-weight:normal;font-stretch:normal;font-size:7.36796px;font-family:'Bitstream Vera Sans Mono';-inkscape-font-specification:'Bitstream Vera Sans Mono';text-align:start;writing-mode:lr-tb;direction:ltr;text-anchor:start;fill:#000000;stroke-width:0.613996"
       x="5.1718407"
       y="20.08215"
       id="text1"><tspan
         sodipodi:role="line"
         id="tspan1"
         x="5.1718407"
         y="20.08215"
         style="font-style:normal;font-variant:normal;font-weight:normal;font-stretch:normal;font-family:'Bitstream Vera Sans Mono';-inkscape-font-specification:'Bitstream Vera Sans Mono';stroke-width:0.613996">CONVERT</tspan><tspan
         sodipodi:role="line"
         x="5.1718407"
         y="29.292099"
         id="tspan2"
         style="font-style:normal;font-variant:normal;font-weight:normal;font-stretch:normal;font-family:'Bitstream Vera Sans Mono';-inkscape-font-specification:'Bitstream Vera Sans Mono';stroke-width:0.613996" /></text>
    <text
       xml:space="preserve"
       style="font-style:normal;font-variant:normal;font-weight:normal;font-stretch:normal;font-family:'Bitstream Vera Sans Mono';-inkscape-font-specification:'Bitstream Vera Sans Mono';text-align:start;writing-mode:lr-tb;direction:ltr;text-anchor:start;fill:#000000"
       x="6.4397521"
       y="33.749069"
       id="text3"><tspan
         sodipodi:role="line"
         id="tspan3"
         x="6.4397521"
         y="33.749069">to</tspan></text>
    <text
       xml:space="preserve"
       style="font-style:normal;font-variant:normal;font-weight:normal;font-stretch:normal;font-size:9.47725px;font-family:'Bitstream Vera Sans Mono';-inkscape-font-specification:'Bitstream Vera Sans Mono';text-align:start;writing-mode:lr-tb;direction:ltr;text-anchor:start;fill:#000000;stroke-width:0.789771"
       x="18.341351"
       y="27.941313"
       id="text4"><tspan
         sodipodi:role="line"
         id="tspan4"
         x="18.341351"
         y="27.941313"
         style="stroke-width:0.789771">Green</tspan></text>
  </g>
  <g
     inkscape:groupmode="layer"
     id="layer2"
     inkscape:label="Scroll">
    <path
       d="m 24.302734,32.650391 a 3.0656271,3.0656271 0 0 0 -0.154297,0.0039 H 10.9375 10.720703 a 3.0656271,3.0656271 0 0 0 -0.02344,0.002 3.0656271,3.0656271 0 0 0 -2.9804691,3.058594 3.0656271,3.0656271 0 0 0 2.9804691,3.064453 h 0.142578 13.408203 a 3.0656271,3.0656271 0 0 0 0.05469,0.002 3.0656271,3.0656271 0 0 0 3.066407,-3.066406 3.0656271,3.0656271 0 0 0 -3.066407,-3.064453 z"
       style="display:none;fill-opacity:0.333707;stroke-linecap:round"
       id="path27" />
    <rect
       style="display:none;fill:#000000;fill-opacity:0.333707;stroke:none;stroke-linecap:round;stroke-linejoin:miter;stroke-opacity:1;paint-order:stroke fill markers"
       id="rect14"
       width="16.593771"
       height="15.911676"
       x="7.7116418"
       y="19.849794" />
    <path
       d="m 21.233673,16.711866 a 3.0656271,3.0656271 0 0 0 -0.154297,0.0039 H 7.8684377 7.6516407 a 3.0656271,3.0656271 0 0 0 -0.02344,0.002 3.0656271,3.0656271 0 0 0 -2.9804691,3.058594 3.0656271,3.0656271 0 0 0 2.9804691,3.064453 h 0.142578 13.4082043 a 3.0656271,3.0656271 0 0 0 0.05469,0.002 3.0656271,3.0656271 0 0 0 3.066407,-3.066406 3.0656271,3.0656271 0 0 0 -3.066407,-3.064453 z"
       style="display:none;fill-opacity:0.333707;stroke-linecap:round"
       id="path28" />
    <g
       id="g32"
       transform="matrix(1.0332771,-0.49911588,0.49911588,1.0332771,-6.0551644,3.224662)"
       inkscape:label="Scroll">
      <path
         d="m 21.234375,16.710937 a 3.0656271,3.0656271 0 0 0 -0.154297,0.0039 H 7.9921875 7.8691406 7.6523437 a 3.0656271,3.0656271 0 0 0 -0.023437,0.002 3.0656271,3.0656271 0 0 0 -1.5898437,0.5 3.0656271,3.0656271 0 0 0 -0.050781,0.03516 3.0656271,3.0656271 0 0 0 -0.2675781,0.207031 3.0656271,3.0656271 0 0 0 -0.080078,0.06836 3.0656271,3.0656271 0 0 0 -0.1914063,0.195312 3.0656271,3.0656271 0 0 0 -0.1132812,0.128906 3.0656271,3.0656271 0 0 0 -0.1269531,0.173829 3.0656271,3.0656271 0 0 0 -0.1230469,0.183593 3.0656271,3.0656271 0 0 0 -0.056641,0.105469 3.0656271,3.0656271 0 0 0 -0.3710938,1.455078 3.0656271,3.0656271 0 0 0 3.0527344,3.066406 v 0.0039 12.921875 h 0.00586 a 3.0656271,3.0656271 0 0 1 0,-0.04687 3.0656271,3.0656271 0 0 0 0.00195,0.04687 3.0656271,3.0656271 0 0 0 0.064453,0.55664 3.0656271,3.0656271 0 0 0 0.058594,0.251953 3.0656271,3.0656271 0 0 0 0.066406,0.189454 3.0656271,3.0656271 0 0 0 0.072266,0.189453 3.0656271,3.0656271 0 0 0 0.095703,0.191406 3.0656271,3.0656271 0 0 0 0.099609,0.181641 3.0656271,3.0656271 0 0 0 0.1015625,0.148437 3.0656271,3.0656271 0 0 0 0.1386718,0.1875 3.0656271,3.0656271 0 0 0 0.140625,0.154297 3.0656271,3.0656271 0 0 0 0.1289063,0.130859 3.0656271,3.0656271 0 0 0 0.1660156,0.146485 3.0656271,3.0656271 0 0 0 0.1621094,0.121093 3.0656271,3.0656271 0 0 0 0.1679687,0.111329 3.0656271,3.0656271 0 0 0 0.1914063,0.109375 3.0656271,3.0656271 0 0 0 0.1601562,0.07813 3.0656271,3.0656271 0 0 0 0.21875,0.08594 3.0656271,3.0656271 0 0 0 0.1835938,0.06055 3.0656271,3.0656271 0 0 0 0.2070314,0.05078 3.0656271,3.0656271 0 0 0 0.181641,0.03516 3.0656271,3.0656271 0 0 0 0.263672,0.02734 3.0656271,3.0656271 0 0 0 0.164062,0.0098 h 0.08789 a 3.0656271,3.0656271 0 0 0 0.257812,-0.02148 3.0656271,3.0656271 0 0 1 -0.220703,0.02148 h 13.371094 a 3.0656271,3.0656271 0 0 0 0.05469,0.002 3.0656271,3.0656271 0 0 0 3.066407,-3.066406 3.0656271,3.0656271 0 0 0 -3.064454,-3.064453 v -12.80091 h -0.0059 a 3.0656271,3.0656271 0 0 0 0.002,-0.07227 3.0656271,3.0656271 0 0 0 -3.066406,-3.064453 z"
         style="fill:#344a00;fill-opacity:1;stroke:#000000;stroke-linecap:round;stroke-opacity:1"
         id="path31"
         inkscape:label="Scroll" />
      <circle
         style="display:inline;fill:#000000;fill-opacity:0.333707;stroke:#000000;stroke-linecap:round;stroke-opacity:1"
         id="circle26"
         cx="7.7235618"
         cy="19.769527"
         r="3.0656271" />
      <circle
         style="display:inline;fill:#000000;fill-opacity:0.333707;stroke:#000000;stroke-linecap:round;stroke-opacity:1"
         id="circle27"
         cx="10.783134"
         cy="35.715118"
         r="3.0656271" />
      <path
         style="fill:none;fill-opacity:1;stroke:#000000;stroke-width:1;stroke-linecap:round;stroke-linejoin:round;stroke-dasharray:none;stroke-opacity:1;paint-order:stroke fill markers"
         d="M 10.751045,32.672503 H 24.285162"
         id="path32" />
    </g>
  </g>
  <g
     inkscape:groupmode="layer"
     id="layer3"
     inkscape:label="Arrow"
     style="display:inline">
    <path
       style="display:none;fill:#92bf2e;fill-opacity:1;stroke:#000000;stroke-width:2;stroke-linecap:round;stroke-linejoin:round;stroke-dasharray:none;stroke-opacity:1;paint-order:stroke fill markers"
       d="m 22.584137,18.841692 c 0,0 -6.580259,0.38815 -9.34057,1.971346 -1.947104,1.116776 -3.8771912,2.139601 -4.5271409,4.985041 -0.603235,2.640926 -0.4433056,3.615474 1.2229747,5.751331 1.3156812,1.686453 3.6944102,2.502507 5.8249712,2.69184 2.726897,0.242328 5.697825,-0.514527 7.946059,-2.076621 2.020775,-1.404052 3.248192,-3.720478 3.248192,-3.720478 l 3.654169,2.419213 -1.633227,-9.687433 -10.378073,1.6283 3.515976,2.221206 c 0,0 -1.986912,2.86268 -3.528366,3.408913 -1.66847,0.591242 -4.043525,0.794781 -5.290273,-0.461791 -1.059772,-1.068125 -1.15957,-3.22694 -0.357224,-4.499831 2.692588,-4.271688 9.642532,-4.631036 9.642532,-4.631036 z"
       id="path11"
       sodipodi:nodetypes="casssscccccasac"
       inkscape:label="Whole" />
    <path
       d="m 31.46515,13.82677 -10.77056,4.004518 4.9331,2.029371 c 0,0 -1.883151,4.045608 -3.70421,5.086059 -1.878497,1.073267 -4.39002,1.256584 -6.460035,0.627547 -0.884505,-0.268783 -2.144443,-1.758607 -2.144443,-1.758607 0,0 1.54708,2.882213 2.840591,3.785166 1.607255,1.121967 3.67215,1.738814 5.631709,1.6919 2.16096,-0.05174 4.407829,-0.833834 6.114124,-2.160852 1.518883,-1.181264 3.204392,-4.801395 3.204392,-4.801395 l 4.059413,1.825682 z"
       style="fill:#92bf2e;stroke:#000000;stroke-width:2.5656;stroke-linecap:round;stroke-linejoin:round;paint-order:stroke fill markers"
       id="path51"
       sodipodi:nodetypes="cccaacaaaccc" />
  </g>
</svg>
