<?xml version="1.0" encoding="UTF-8" standalone="no"?>
<!-- Created with Inkscape (http://www.inkscape.org/) -->

<svg
   width="48"
   height="48"
   viewBox="0 0 48 48"
   version="1.1"
   id="svg1"
   inkscape:version="1.4.2 (ebf0e940d0, 2025-05-08)"
   sodipodi:docname="logo.svg"
   inkscape:export-filename="/home/noah/Downloads/logo.svg"
   inkscape:export-xdpi="96"
   inkscape:export-ydpi="96"
   xmlns:inkscape="http://www.inkscape.org/namespaces/inkscape"
   xmlns:sodipodi="http://sodipodi.sourceforge.net/DTD/sodipodi-0.dtd"
   xmlns="http://www.w3.org/2000/svg"
   xmlns:svg="http://www.w3.org/2000/svg">
  <sodipodi:namedview
     id="namedview1"
     pagecolor="#ffffff"
     bordercolor="#000000"
     borderopacity="0.25"
     inkscape:showpageshadow="2"
     inkscape:pageopacity="0.0"
     inkscape:pagecheckerboard="0"
     inkscape:deskcolor="#d1d1d1"
     inkscape:document-units="px"
     inkscape:zoom="17.776411"
     inkscape:cx="22.276712"
     inkscape:cy="26.917694"
     inkscape:window-width="1920"
     inkscape:window-height="1014"
     inkscape:window-x="0"
     inkscape:window-y="0"
     inkscape:window-maximized="1"
     inkscape:current-layer="layer3" />
  <defs
     id="defs1">
    <inkscape:path-effect
       effect="offset"
       id="path-effect9"
       is_visible="true"
       lpeversion="1.3"
       linejoin_type="miter"
       unit="mm"
       offset="0"
       miter_limit="4"
       attempt_force_join="false"
       update_on_knot_move="true" />
    <inkscape:path-effect
       effect="offset"
       id="path-effect5"
       is_visible="true"
       lpeversion="1.3"
       linejoin_type="miter"
       unit="mm"
       offset="0.2"
       miter_limit="4"
       attempt_force_join="false"
       update_on_knot_move="true" />
    <inkscape:path-effect
       effect="fillet_chamfer"
       id="path-effect4"
       is_visible="true"
       lpeversion="1"
       nodesatellites_param="F,0,0,1,0,0,0,1 @ F,0,0,1,0,1.2035719,0,1 @ F,0,0,1,0,0,0,1 @ F,0,0,1,0,0,0,1 @ F,0,0,1,0,0,0,1 @ F,0,0,1,0,0,0,1 @ F,0,0,1,0,0,0,1 @ F,0,0,1,0,0,0,1 @ F,0,0,1,0,0,0,1 @ F,0,0,1,0,0,0,1 @ F,0,0,1,0,1.1547059,0,1"
       radius="0"
       unit="px"
       method="auto"
       mode="F"
       chamfer_steps="1"
       flexible="false"
       use_knot_distance="true"
       apply_no_radius="true"
       apply_with_radius="true"
       only_selected="false"
       hide_knots="false" />
    <inkscape:path-effect
       effect="fillet_chamfer"
       id="path-effect1"
       is_visible="true"
       lpeversion="1"
       nodesatellites_param="F,0,0,1,0,0,0,1 @ F,0,0,1,0,1.2035719,0,1 @ F,0,0,1,0,0,0,1 @ F,0,0,1,0,0,0,1 @ F,0,0,1,0,0,0,1 @ F,0,0,1,0,0,0,1 @ F,0,0,1,0,0,0,1 @ F,0,0,1,0,0,0,1 @ F,0,0,1,0,0,0,1 @ F,0,0,1,0,0,0,1 @ F,0,0,1,0,1.1547059,0,1"
       radius="0"
       unit="px"
       method="auto"
       mode="F"
       chamfer_steps="1"
       flexible="false"
       use_knot_distance="true"
       apply_no_radius="true"
       apply_with_radius="true"
       only_selected="false"
       hide_knots="false" />
  </defs>
  <g
     inkscape:label="Layer 1"
     inkscape:groupmode="layer"
     id="layer1"
     style="display:none">
    <text
       xml:space="preserve"
       style="font-style:normal;font-variant:normal;font-weight:normal;font-stretch:normal;font-size:7.36796px;font-family:'Bitstream Vera Sans Mono';-inkscape-font-specification:'Bitstream Vera Sans Mono';text-align:start;writing-mode:lr-tb;direction:ltr;text-anchor:start;fill:#000000;stroke-width:0.613996"
       x="5.1718407"
       y="20.08215"
       id="text1"><tspan
         sodipodi:role="line"
         id="tspan1"
         x="5.1718407"
         y="20.08215"
         style="font-style:normal;font-variant:normal;font-weight:normal;font-stretch:normal;font-family:'Bitstream Vera Sans Mono';-inkscape-font-specification:'Bitstream Vera Sans Mono';stroke-width:0.613996">CONVERT</tspan><tspan
         sodipodi:role="line"
         x="5.1718407"
         y="29.292099"
         id="tspan2"
         style="font-style:normal;font-variant:normal;font-weight:normal;font-stretch:normal;font-family:'Bitstream Vera Sans Mono';-inkscape-font-specification:'Bitstream Vera Sans Mono';stroke-width:0.613996" /></text>
    <text
       xml:space="preserve"
       style="font-style:normal;font-variant:normal;font-weight:normal;font-stretch:normal;font-family:'Bitstream Vera Sans Mono';-inkscape-font-specification:'Bitstream Vera Sans Mono';text-align:start;writing-mode:lr-tb;direction:ltr;text-anchor:start;fill:#000000"
       x="6.4397521"
       y="33.749069"
       id="text3"><tspan
         sodipodi:role="line"
         id="tspan3"
         x="6.4397521"
         y="33.749069">to</tspan></text>
    <text
       xml:space="preserve"
       style="font-style:normal;font-variant:normal;font-weight:normal;font-stretch:normal;font-size:9.47725px;font-family:'Bitstream Vera Sans Mono';-inkscape-font-specification:'Bitstream Vera Sans Mono';text-align:start;writing-mode:lr-tb;direction:ltr;text-anchor:start;fill:#000000;stroke-width:0.789771"
       x="18.341351"
       y="27.941313"
       id="text4"><tspan
         sodipodi:role="line"
         id="tspan4"
         x="18.341351"
         y="27.941313"
         style="stroke-width:0.789771">Green</tspan></text>
  </g>
  <g
     inkscape:groupmode="layer"
     id="layer2"
     inkscape:label="Scroll">
    <path
       d="m 21.234375,16.710937 a 3.0656271,3.0656271 0 0 0 -0.154297,0.0039 H 7.9921875 7.8691406 7.6523437 a 3.0656271,3.0656271 0 0 0 -0.023437,0.002 3.0656271,3.0656271 0 0 0 -1.5898437,0.5 3.0656271,3.0656271 0 0 0 -0.050781,0.03516 3.0656271,3.0656271 0 0 0 -0.2675781,0.207031 3.0656271,3.0656271 0 0 0 -0.080078,0.06836 3.0656271,3.0656271 0 0 0 -0.1914063,0.195312 3.0656271,3.0656271 0 0 0 -0.1132812,0.128906 3.0656271,3.0656271 0 0 0 -0.1269531,0.173829 3.0656271,3.0656271 0 0 0 -0.1230469,0.183593 3.0656271,3.0656271 0 0 0 -0.056641,0.105469 3.0656271,3.0656271 0 0 0 -0.3710938,1.455078 3.0656271,3.0656271 0 0 0 3.0527344,3.066406 v 0.0039 12.921875 h 0.00586 a 3.0656271,3.0656271 0 0 1 0,-0.04687 3.0656271,3.0656271 0 0 0 0.00195,0.04687 3.0656271,3.0656271 0 0 0 0.064453,0.55664 3.0656271,3.0656271 0 0 0 0.058594,0.251953 3.0656271,3.0656271 0 0 0 0.066406,0.189454 3.0656271,3.0656271 0 0 0 0.072266,0.189453 3.0656271,3.0656271 0 0 0 0.095703,0.191406 3.0656271,3.0656271 0 0 0 0.099609,0.181641 3.0656271,3.0656271 0 0 0 0.1015625,0.148437 3.0656271,3.0656271 0 0 0 0.1386718,0.1875 3.0656271,3.0656271 0 0 0 0.140625,0.154297 3.0656271,3.0656271 0 0 0 0.1289063,0.130859 3.0656271,3.0656271 0 0 0 0.1660156,0.146485 3.0656271,3.0656271 0 0 0 0.1621094,0.121093 3.0656271,3.0656271 0 0 0 0.1679687,0.111329 3.0656271,3.0656271 0 0 0 0.1914063,0.109375 3.0656271,3.0656271 0 0 0 0.1601562,0.07813 3.0656271,3.0656271 0 0 0 0.21875,0.08594 3.0656271,3.0656271 0 0 0 0.1835938,0.06055 3.0656271,3.0656271 0 0 0 0.2070314,0.05078 3.0656271,3.0656271 0 0 0 0.181641,0.03516 3.0656271,3.0656271 0 0 0 0.263672,0.02734 3.0656271,3.0656271 0 0 0 0.164062,0.0098 h 0.08789 a 3.0656271,3.0656271 0 0 0 0.257812,-0.02148 3.0656271,3.0656271 0 0 1 -0.220703,0.02148 h 13.371094 a 3.0656271,3.0656271 0 0 0 0.05469,0.002 3.0656271,3.0656271 0 0 0 3.066407,-3.066406 3.0656271,3.0656271 0 0 0 -3.064454,-3.064453 v -12.80091 h -0.0059 a 3.0656271,3.0656271 0 0 0 0.002,-0.07227 3.0656271,3.0656271 0 0 0 -3.066406,-3.064453 z"
       style="fill:#90a955;fill-opacity:1;stroke:none;display:none;stroke-linecap:round;stroke-opacity:1"
       id="path31"
       inkscape:label="Scroll"
       transform="matrix(0.88761988,-0.00379961,0.00379961,0.88761988,10.897629,-1.0297391)" />
    <path
       d="m 21.233717,16.711067 a 3.0656271,3.0656271 0 0 0 -0.154045,0.0037 l -13.0880162,-10e-4 -0.0088,-3.8e-5 -0.1144285,0.0017 -0.2156359,-9.23e-4 a 3.0656271,3.0656271 0 0 0 -0.024214,0.0021 3.0656271,3.0656271 0 0 0 -1.5886308,0.499293 3.0656271,3.0656271 0 0 0 -0.050759,0.03499 3.0656271,3.0656271 0 0 0 -0.2693395,0.207886 3.0656271,3.0656271 0 0 0 -0.086135,0.07444 3.0656271,3.0656271 0 0 0 -0.1790209,0.184068 3.0656271,3.0656271 0 0 0 -0.1282523,0.146878 3.0656271,3.0656271 0 0 0 -0.1128875,0.155746 3.0656271,3.0656271 0 0 0 -0.2171995,0.364337 3.0656271,3.0656271 0 0 0 -0.1221504,0.263526 3.0656271,3.0656271 0 0 0 -0.024515,0.07251 3.0656271,3.0656271 0 0 0 -0.095887,0.296644 3.0656271,3.0656271 0 0 0 -0.00674,0.03298 3.0656271,3.0656271 0 0 0 -0.063042,0.334192 3.0656271,3.0656271 0 0 0 -0.025852,0.38496 3.0656271,3.0656271 0 0 0 1.6123417,2.7002 3.0656271,3.0656271 0 0 0 0.3755375,0.171039 l 0.0022,1e-5 c 0.064887,-0.06242 0.1242829,-0.118934 0.178955,-0.168666 0.1059566,-0.09638 0.2898029,-0.254248 0.3666078,-0.313089 l 1.1788765,-0.901521 0.1829773,1.461854 0.0022,9e-6 -3.77e-5,0.0088 c 0.023765,0.18828 0.022582,0.185503 0.081476,0.499842 0.058898,0.314339 0.1513817,0.744534 0.2831617,1.189432 0.1317811,0.444897 0.3049583,0.905842 0.5028593,1.269587 0.1979011,0.363744 0.4252051,0.611559 0.5800924,0.704413 1.103224,0.661329 2.696104,0.606999 4.682993,-0.122981 0.809989,-0.297588 1.798565,-0.976151 2.546042,-1.582195 0.236126,-0.191447 0.450193,-0.37517 0.631613,-0.536396 l -1.698154,-1.672978 c -0.855334,-0.844153 -0.265626,-2.308693 0.93411,-2.321831 0.04175,-4.98e-4 0.112927,0.0051 0.109999,0.0049 l 7.094261,0.479252 -10e-4,-0.789951 -0.0066,-2.8e-5 a 3.0656271,3.0656271 0 0 0 0.0025,-0.0704 3.0656271,3.0656271 0 0 0 -3.06745,-3.065096 z"
       style="fill:#90a955;fill-opacity:1;stroke:none;display:inline;stroke-linecap:round"
       id="path7"
       inkscape:label="top_scroll"
       transform="matrix(0.88761988,-0.00379961,0.00379961,0.88761988,10.897629,-1.0297391)" />
    <path
       d="m 22.392466,30.792031 c -1.91734,1.445748 -4.001189,2.711699 -5.298674,3.106297 -1.048603,0.318905 -2.225112,0.620853 -3.431506,0.764255 -1.544868,0.183634 -3.138994,0.106811 -4.5789687,-0.532296 C 8.8541063,34.028555 8.6244009,33.91495 8.3982534,33.788491 8.1654871,33.658332 7.9368431,33.5152 7.7113565,33.360872 l -0.0022,-9e-6 7.257e-4,2.400647 0.0066,2.8e-5 a 3.0656271,3.0656271 0 0 1 1.978e-4,-0.04621 3.0656271,3.0656271 0 0 0 0.022753,0.33896 3.0656271,3.0656271 0 0 0 0.036436,0.226798 3.0656271,3.0656271 0 0 0 0.01291,0.06827 3.0656271,3.0656271 0 0 0 0.054067,0.220272 3.0656271,3.0656271 0 0 0 0.065201,0.189514 3.0656271,3.0656271 0 0 0 0.069639,0.180731 3.0656271,3.0656271 0 0 0 0.098159,0.200658 3.0656271,3.0656271 0 0 0 0.098272,0.174252 3.0656271,3.0656271 0 0 0 0.107121,0.163289 3.0656271,3.0656271 0 0 0 0.1225235,0.163355 3.0656271,3.0656271 0 0 0 0.074454,0.08393 3.0656271,3.0656271 0 0 0 0.078846,0.08615 3.0656271,3.0656271 0 0 0 0.1292565,0.132578 3.0656271,3.0656271 0 0 0 0.1687877,0.15035 3.0656271,3.0656271 0 0 0 0.1557269,0.117288 3.0656271,3.0656271 0 0 0 0.1711576,0.110753 3.0656271,3.0656271 0 0 0 0.1712142,0.09755 3.0656271,3.0656271 0 0 0 0.1800533,0.08879 3.0656271,3.0656271 0 0 1 0.0022,10e-6 3.0656271,3.0656271 0 0 0 0.2086769,0.08451 3.0656271,3.0656271 0 0 0 0.1911682,0.06243 3.0656271,3.0656271 0 0 0 0.1846422,0.0448 3.0656271,3.0656271 0 0 0 0.211056,0.04271 3.0656271,3.0656271 0 0 0 0.230944,0.02299 3.0656271,3.0656271 0 0 0 0.222181,0.01415 3.0656271,3.0656271 0 0 0 0.182687,-0.01242 3.0656271,3.0656271 0 0 0 0.06823,-0.0041 3.0656271,3.0656271 0 0 1 -0.158492,0.01472 l 13.371873,3e-5 a 3.0656271,3.0656271 0 0 0 0.055,0.0024 3.0656271,3.0656271 0 0 0 3.065085,-3.065249 3.0656271,3.0656271 0 0 0 -1.851691,-2.815645 c -0.555771,0.867298 -1.940684,0.807522 -2.362251,-0.230153 z"
       style="fill:#90a955;fill-opacity:1;stroke:none;display:inline;stroke-linecap:round"
       id="path6"
       transform="matrix(0.88761988,-0.00379961,0.00379961,0.88761988,10.897629,-1.0297391)"
       inkscape:label="bottom_scroll" />
    <path
       d="m 26.154297,16.794922 c -1.064859,0.01622 -1.582732,1.318416 -0.820313,2.064453 l 1.513672,1.478516 c -0.160419,0.143797 -0.349731,0.307686 -0.558594,0.478515 -0.661173,0.540777 -1.536074,1.14684 -2.253906,1.414063 -1.760828,0.655494 -3.174494,0.70977 -4.15625,0.126953 -0.137834,-0.08183 -0.340535,-0.300932 -0.517578,-0.623047 -0.177043,-0.322115 -0.33251,-0.730601 -0.451172,-1.125 -0.118661,-0.394399 -0.202386,-0.775898 -0.255859,-1.054688 -0.05347,-0.278789 -0.05241,-0.276329 -0.07422,-0.443359 l -0.169922,-1.304687 -1.042969,0.804687 c -0.06795,0.05252 -0.230535,0.193344 -0.324218,0.279297 -0.734825,0.674198 -2.624775,2.679525 -2.232422,5.240234 0.347891,2.27053 2.290854,4.227243 4.279297,5.09961 2.280587,1.000535 4.989476,0.418311 7.109375,-0.236328 1.150174,-0.355183 2.99503,-1.486784 4.691406,-2.777344 l 0.683594,1.664062 c 0.417312,1.014721 1.871834,0.968623 2.224609,-0.07031 l 3.503906,-10.3125 -11.050781,-0.699219 c 0.0026,1.63e-4 -0.0606,-0.0045 -0.09766,-0.0039 z"
       style="fill:#4f772d;fill-opacity:1;stroke:none;display:none;stroke-width:1.8;stroke-linecap:round;stroke-linejoin:round;stroke-dasharray:none;paint-order:stroke fill markers"
       id="path3"
       sodipodi:nodetypes="cccszcsaaccc"
       inkscape:original-d="m 36.268768,18.188872 -11.264777,-0.712799 2.935544,2.872465 c 0,0 -1.909558,1.947113 -3.641382,2.591809 -1.871629,0.696741 -3.541147,0.8184 -4.805263,0.06796 -1.264116,-0.750443 -1.66354,-3.79887 -1.66354,-3.79887 0,0 -2.689525,2.078737 -2.271539,4.806742 0.299396,1.954025 2.024741,3.729439 3.835016,4.52364 2.011392,0.882434 4.48522,0.379756 6.583882,-0.268325 1.964435,-0.606632 5.231347,-3.267426 5.231347,-3.267426 l 1.50444,3.65814 z"
       inkscape:path-effect="#path-effect4;#path-effect5"
       inkscape:label="arrow" />
    <circle
       style="display:none;fill:#000000;fill-opacity:0.133333;stroke:none;stroke-linecap:round;stroke-opacity:1"
       id="circle26"
       cx="7.7235618"
       cy="19.769527"
       r="3.0656271"
       transform="matrix(0.88761988,-0.00379961,0.00379961,0.88761988,10.897629,-1.0297391)" />
    <path
       d="m 18.580078,19.103516 a 2.7211365,2.7211365 0 0 0 1.96875,-2.626954 2.7211365,2.7211365 0 0 0 -2.509766,-2.701171 2.7211365,2.7211365 0 0 1 -0.002,0 l -0.0918,0.002 h -0.191406 a 2.7211365,2.7211365 0 0 0 -0.02148,0.002 2.7211365,2.7211365 0 0 0 -1.408203,0.449219 2.7211365,2.7211365 0 0 0 -0.04492,0.03125 2.7211365,2.7211365 0 0 0 -0.238281,0.185547 2.7211365,2.7211365 0 0 0 -0.07617,0.06641 2.7211365,2.7211365 0 0 1 -0.002,0.002 2.7211365,2.7211365 0 0 0 -0.15625,0.162109 2.7211365,2.7211365 0 0 0 -0.113282,0.13086 2.7211365,2.7211365 0 0 0 -0.0957,0.134765 2.7211365,2.7211365 0 0 0 -0.0059,0.0078 2.7211365,2.7211365 0 0 0 -0.185547,0.314453 2.7211365,2.7211365 0 0 0 -0.01367,0.02734 2.7211365,2.7211365 0 0 0 -0.0957,0.208984 2.7211365,2.7211365 0 0 0 -0.02734,0.08008 2.7211365,2.7211365 0 0 0 -0.07813,0.248047 2.7211365,2.7211365 0 0 0 -0.01953,0.09375 2.7211365,2.7211365 0 0 0 -0.04297,0.236328 2.7211365,2.7211365 0 0 0 -0.02148,0.341797 2.7211365,2.7211365 0 0 0 0.101562,0.722656 2.7211365,2.7211365 0 0 0 0.121094,0.345703 2.7211365,2.7211365 0 0 0 0.376953,0.625 2.7211365,2.7211365 0 0 0 0.248047,0.269532 2.7211365,2.7211365 0 0 0 0.283203,0.234375 2.7211365,2.7211365 0 0 0 0.310547,0.193359 2.7211365,2.7211365 0 0 0 0.333984,0.150391 2.7211365,2.7211365 0 0 1 0.002,0 c 0.05736,-0.05565 0.109864,-0.10604 0.158203,-0.150391 0.09368,-0.08595 0.256269,-0.226777 0.324218,-0.279297 l 1.042969,-0.804687 0.167969,1.296875 a 2.7211365,2.7211365 0 0 1 0.002,0 z"
       style="display:inline;fill-opacity:0.133333;stroke-linecap:round"
       id="path8"
       inkscape:label="top_circle" />
    <circle
       style="display:none;fill:#000000;fill-opacity:0.133333;stroke:none;stroke-linecap:round;stroke-opacity:1"
       id="circle27"
       cx="10.783134"
       cy="35.715118"
       r="3.0656271"
       transform="matrix(0.88761988,-0.00379961,0.00379961,0.88761988,10.897629,-1.0297391)" />
    <path
       d="m 20.617187,33.351562 a 2.7211365,2.7211365 0 0 0 0.16211,-0.01172 2.7211365,2.7211365 0 0 0 0.03906,-0.002 2.7211365,2.7211365 0 0 0 2.507813,-2.71875 2.7211365,2.7211365 0 0 0 -0.169922,-0.933594 c -1.370558,0.168867 -2.785828,0.106734 -4.066406,-0.455078 -0.203775,-0.0894 -0.408223,-0.189436 -0.609375,-0.300782 a 2.7211365,2.7211365 0 0 0 -0.597657,1.712891 2.7211365,2.7211365 0 0 0 0.02148,0.300781 2.7211365,2.7211365 0 0 0 0.03125,0.191407 2.7211365,2.7211365 0 0 0 0.01758,0.08789 2.7211365,2.7211365 0 0 0 0.04492,0.177735 2.7211365,2.7211365 0 0 0 0.05859,0.167968 2.7211365,2.7211365 0 0 0 0.0625,0.160157 2.7211365,2.7211365 0 0 0 0.08789,0.177734 2.7211365,2.7211365 0 0 0 0.08789,0.154297 2.7211365,2.7211365 0 0 0 0.09961,0.15039 2.7211365,2.7211365 0 0 0 0.105469,0.138672 2.7211365,2.7211365 0 0 0 0.06641,0.07422 2.7211365,2.7211365 0 0 0 0.07031,0.07617 2.7211365,2.7211365 0 0 0 0.115234,0.117187 2.7211365,2.7211365 0 0 0 0.158203,0.138672 2.7211365,2.7211365 0 0 0 0.115235,0.08594 2.7211365,2.7211365 0 0 0 0.167968,0.109375 2.7211365,2.7211365 0 0 0 0.150391,0.08398 2.7211365,2.7211365 0 0 0 0.162109,0.08008 2.7211365,2.7211365 0 0 1 0.002,0 2.7211365,2.7211365 0 0 0 0.169922,0.06836 2.7211365,2.7211365 0 0 0 0.185547,0.06055 2.7211365,2.7211365 0 0 0 0.164063,0.03906 2.7211365,2.7211365 0 0 0 0.1875,0.03711 2.7211365,2.7211365 0 0 0 0.199218,0.01953 2.7211365,2.7211365 0 0 0 0.203125,0.01172 z"
       style="display:inline;fill-opacity:0.133333;stroke-linecap:round"
       id="path9"
       inkscape:label="bottom_circle" />
  </g>
  <g
     inkscape:groupmode="layer"
     id="layer3"
     inkscape:label="Arrow"
     style="display:inline">
    <path
       d="m 26.166016,17.550781 c -0.388903,0.0059 -0.589725,0.486755 -0.302735,0.767578 l 2.076172,2.029297 c 0,0 -1.908801,1.947101 -3.640625,2.591797 -1.871629,0.696741 -3.542524,0.818799 -4.806641,0.06836 -1.264116,-0.750443 -1.662109,-3.798828 -1.662109,-3.798828 0,0 -2.68947,2.078636 -2.271484,4.806641 0.299396,1.954025 2.023709,3.729236 3.833984,4.523437 2.011392,0.882434 4.485322,0.380503 6.583984,-0.267578 1.964435,-0.606632 5.232422,-3.267578 5.232422,-3.267578 l 1.064453,2.589844 c 0.152176,0.370025 0.681907,0.35346 0.810547,-0.02539 l 3.185547,-9.378906 -10.064453,-0.636719 c -0.01293,-8.18e-4 -0.02652,-0.0021 -0.03906,-0.002 z"
       style="fill:#4f772d;fill-opacity:1;stroke:none;stroke-width:1.8;stroke-linecap:round;stroke-linejoin:round;stroke-dasharray:none;paint-order:stroke fill markers"
       id="path51"
       sodipodi:nodetypes="cccszcsaaccc"
       inkscape:path-effect="#path-effect1;#path-effect9"
       inkscape:original-d="m 36.268768,18.188872 -11.264777,-0.712799 2.935544,2.872465 c 0,0 -1.909558,1.947113 -3.641382,2.591809 -1.871629,0.696741 -3.541147,0.8184 -4.805263,0.06796 -1.264116,-0.750443 -1.66354,-3.79887 -1.66354,-3.79887 0,0 -2.689525,2.078737 -2.271539,4.806742 0.299396,1.954025 2.024741,3.729439 3.835016,4.52364 2.011392,0.882434 4.48522,0.379756 6.583882,-0.268325 1.964435,-0.606632 5.231347,-3.267426 5.231347,-3.267426 l 1.50444,3.65814 z" />
  </g>
</svg>
